<svg id="svg4247" xmlns="http://www.w3.org/2000/svg" viewBox="0 0 418.32 117.99"><title>hot-logo-v2</title><g id="g4255"><g id="g4263"><g id="g4269"><path id="path4271" d="M245.76,33.74V31.49a5.51,5.51,0,0,1-4.8,2.59,6.07,6.07,0,0,1-2.49-.52,4,4,0,0,1-1.72-1.3,4.84,4.84,0,0,1-.79-1.92,13.65,13.65,0,0,1-.16-2.42V18.46h2.57v8.47a15.89,15.89,0,0,0,.15,2.73,2.78,2.78,0,0,0,1,1.61,3.17,3.17,0,0,0,1.94.58,4.13,4.13,0,0,0,2.16-.59,3.27,3.27,0,0,0,1.43-1.62,8.16,8.16,0,0,0,.42-3V18.46H248V33.74Z" transform="translate(0 -0.3)" fill="#d73f3f"/></g><g id="g4273"><path id="path4275" d="M252.08,33.74V18.46h2.29V20.6a5.44,5.44,0,0,1,1.89-1.81,5.29,5.29,0,0,1,2.69-.68,5,5,0,0,1,2.75.7,3.74,3.74,0,0,1,1.51,2,5.4,5.4,0,0,1,4.67-2.68,4.58,4.58,0,0,1,3.46,1.26,5.39,5.39,0,0,1,1.21,3.88V33.74H270V24.12a7.15,7.15,0,0,0-.25-2.24,2.17,2.17,0,0,0-.9-1.1,2.82,2.82,0,0,0-1.54-.42,3.56,3.56,0,0,0-2.64,1.07,4.75,4.75,0,0,0-1.05,3.43v8.88h-2.56V23.82a4.4,4.4,0,0,0-.63-2.59,2.36,2.36,0,0,0-2-.86,3.71,3.71,0,0,0-2,.58A3.28,3.28,0,0,0,255,22.62a9.56,9.56,0,0,0-.41,3.2v7.93Z" transform="translate(0 -0.3)" fill="#d73f3f"/></g><g id="g4277"><path id="path4279" d="M286,27a6.3,6.3,0,0,1-.42,2.59,4,4,0,0,1-1.69,1.79,5.26,5.26,0,0,1-2.63.66,3.34,3.34,0,0,1-2.27-.69,2.2,2.2,0,0,1-.77-1.72,2.29,2.29,0,0,1,.35-1.24,2.23,2.23,0,0,1,1-.84,9.32,9.32,0,0,1,2.23-.52,18.61,18.61,0,0,0,4.19-1Zm2.75,4.88a36.76,36.76,0,0,1-.17-4.57V23.88a15,15,0,0,0-.13-2.38,4.13,4.13,0,0,0-.79-1.76,4.11,4.11,0,0,0-1.78-1.15,8.91,8.91,0,0,0-3.14-.46,10,10,0,0,0-3.43.53,4.91,4.91,0,0,0-2.27,1.54A6.33,6.33,0,0,0,276,22.82l2.5.34a4,4,0,0,1,1.27-2.27,4.51,4.51,0,0,1,2.68-.64,4.24,4.24,0,0,1,2.91.88,2.85,2.85,0,0,1,.73,2.23c0,.1,0,.33,0,.68a22.78,22.78,0,0,1-4.57.89,18.42,18.42,0,0,0-2.27.39,6.23,6.23,0,0,0-1.85.85,4.26,4.26,0,0,0-1.82,3.54,4.06,4.06,0,0,0,1.34,3.14,5.44,5.44,0,0,0,3.83,1.23,7.81,7.81,0,0,0,2.82-.5,9.39,9.39,0,0,0,2.74-1.73,5.69,5.69,0,0,0,.51,1.89h2.68a5.86,5.86,0,0,1-.64-1.84" transform="translate(0 -0.3)" fill="#d73f3f"/></g><g id="g4281"><path id="path4283" d="M292.62,33.74V18.46h2.31v2.18a5.4,5.4,0,0,1,4.81-2.52,6.17,6.17,0,0,1,2.51.49,3.83,3.83,0,0,1,1.71,1.3,4.92,4.92,0,0,1,.8,1.91,15.36,15.36,0,0,1,.14,2.52v9.4h-2.57v-9.3a7.27,7.27,0,0,0-.29-2.37A2.47,2.47,0,0,0,301,20.83a3.38,3.38,0,0,0-1.79-.47,4.16,4.16,0,0,0-2.83,1c-.79.7-1.19,2-1.19,4v8.35Z" transform="translate(0 -0.3)" fill="#d73f3f"/></g><path id="path4285" d="M308.86,12.65h2.56v3h-2.56Z" transform="translate(0 -0.3)" fill="#d73f3f"/><path id="path4287" d="M308.86,18.46h2.56V33.74h-2.56Z" transform="translate(0 -0.3)" fill="#d73f3f"/><g id="g4289"><path id="path4291" d="M320.93,31.43l.38,2.28a9.18,9.18,0,0,1-1.94.23,4.44,4.44,0,0,1-2.17-.44,2.52,2.52,0,0,1-1.08-1.18,9.35,9.35,0,0,1-.31-3.05V20.48h-1.88v-2h1.88V14.67l2.54-1.54v5.33h2.58v2h-2.58v8.93a4.79,4.79,0,0,0,.13,1.42,1.1,1.1,0,0,0,.44.51,1.78,1.78,0,0,0,.88.18,8.11,8.11,0,0,0,1.12-.1" transform="translate(0 -0.3)" fill="#d73f3f"/></g><g id="g4293"><path id="path4295" d="M333.07,27a6.31,6.31,0,0,1-.41,2.59A4,4,0,0,1,331,31.4a5.26,5.26,0,0,1-2.63.66,3.31,3.31,0,0,1-2.27-.69,2.26,2.26,0,0,1,.59-3.8,9.53,9.53,0,0,1,2.24-.52,18.51,18.51,0,0,0,4.18-1Zm2.75,4.88a37.41,37.41,0,0,1-.16-4.57V23.88a15.13,15.13,0,0,0-.12-2.38,4.15,4.15,0,0,0-.8-1.76A4,4,0,0,0,333,18.58a8.88,8.88,0,0,0-3.14-.46,10,10,0,0,0-3.43.53,4.88,4.88,0,0,0-2.26,1.54A6.22,6.22,0,0,0,323,22.82l2.51.34a3.92,3.92,0,0,1,1.27-2.27,4.49,4.49,0,0,1,2.67-.64,4.26,4.26,0,0,1,2.92.88,2.86,2.86,0,0,1,.73,2.23c0,.1,0,.33,0,.68a22.8,22.8,0,0,1-4.57.89,18.62,18.62,0,0,0-2.28.39,6.19,6.19,0,0,0-1.84.85,4.23,4.23,0,0,0-1.32,1.49,4.17,4.17,0,0,0-.51,2,4.09,4.09,0,0,0,1.34,3.14,5.47,5.47,0,0,0,3.83,1.23,7.88,7.88,0,0,0,2.83-.5,9.49,9.49,0,0,0,2.74-1.73,5.51,5.51,0,0,0,.51,1.89h2.68a5.69,5.69,0,0,1-.65-1.84" transform="translate(0 -0.3)" fill="#d73f3f"/></g><g id="g4297"><path id="path4299" d="M339.62,33.74V18.46h2.31v2.32a6.29,6.29,0,0,1,1.63-2.15,2.82,2.82,0,0,1,1.64-.51,5,5,0,0,1,2.63.83L347,21.36a3.63,3.63,0,0,0-1.88-.56,2.43,2.43,0,0,0-1.51.51,2.77,2.77,0,0,0-1,1.41,10.19,10.19,0,0,0-.43,3v8Z" transform="translate(0 -0.3)" fill="#d73f3f"/></g><path id="path4301" d="M349.39,12.65H352v3h-2.57Z" transform="translate(0 -0.3)" fill="#d73f3f"/><path id="path4303" d="M349.39,18.46H352V33.74h-2.57Z" transform="translate(0 -0.3)" fill="#d73f3f"/><g id="g4305"><path id="path4307" d="M365.53,27a6.3,6.3,0,0,1-.42,2.59,4,4,0,0,1-1.69,1.79,5.26,5.26,0,0,1-2.63.66,3.34,3.34,0,0,1-2.28-.69,2.23,2.23,0,0,1-.77-1.72,2.29,2.29,0,0,1,.35-1.24,2.27,2.27,0,0,1,1-.84,9.31,9.31,0,0,1,2.23-.52,18.49,18.49,0,0,0,4.19-1Zm2.75,4.88a36.76,36.76,0,0,1-.17-4.57V23.88A15,15,0,0,0,368,21.5a4.13,4.13,0,0,0-.79-1.76,4.07,4.07,0,0,0-1.78-1.15,8.91,8.91,0,0,0-3.14-.46,10,10,0,0,0-3.43.53,5,5,0,0,0-2.27,1.54,6.33,6.33,0,0,0-1.12,2.63l2.5.34a3.93,3.93,0,0,1,1.28-2.27,4.48,4.48,0,0,1,2.67-.64,4.27,4.27,0,0,1,2.92.88,2.88,2.88,0,0,1,.72,2.23c0,.1,0,.33,0,.68a22.78,22.78,0,0,1-4.57.89,18.41,18.41,0,0,0-2.28.39,6.09,6.09,0,0,0-1.84.85A4.24,4.24,0,0,0,355,29.71a4.06,4.06,0,0,0,1.34,3.14,5.46,5.46,0,0,0,3.83,1.23,7.88,7.88,0,0,0,2.83-.5,9.35,9.35,0,0,0,2.74-1.73,5.49,5.49,0,0,0,.52,1.89h2.67a5.86,5.86,0,0,1-.64-1.84" transform="translate(0 -0.3)" fill="#d73f3f"/></g><g id="g4309"><path id="path4311" d="M372.1,33.74V18.46h2.31v2.18a5.41,5.41,0,0,1,4.81-2.52,6.16,6.16,0,0,1,2.51.49,3.9,3.9,0,0,1,1.72,1.3,5,5,0,0,1,.79,1.91,15.51,15.51,0,0,1,.14,2.52v9.4h-2.56v-9.3a7,7,0,0,0-.3-2.37,2.48,2.48,0,0,0-1.06-1.25,3.37,3.37,0,0,0-1.79-.47,4.12,4.12,0,0,0-2.82,1c-.79.7-1.2,2-1.2,4v8.35Z" transform="translate(0 -0.3)" fill="#d73f3f"/></g><g id="g4313"><path id="path4315" d="M230.07,65.65a7,7,0,0,1-10.22,0,8.49,8.49,0,0,1-2-6c0-3.18.71-5.44,2.12-6.8a7,7,0,0,1,5-2,6.83,6.83,0,0,1,3.73,1.06,6.68,6.68,0,0,1,2.52,3,11,11,0,0,1,.86,4.5,9,9,0,0,1-2,6.28m3.65-11.93a9.05,9.05,0,0,0-3.54-3.89,9.94,9.94,0,0,0-5.21-1.4,9.44,9.44,0,0,0-7.2,3q-2.8,3-2.79,8.22a12,12,0,0,0,1.2,5.27,9.19,9.19,0,0,0,3.51,3.93,9.84,9.84,0,0,0,5.27,1.44A10.26,10.26,0,0,0,230,69a8.8,8.8,0,0,0,3.63-3.83,12.57,12.57,0,0,0,1.28-5.75,12.77,12.77,0,0,0-1.21-5.66" transform="translate(0 -0.3)" fill="#d73f3f"/></g><g id="g4317"><path id="path4319" d="M247.43,66.66a3.68,3.68,0,0,1-2.92,1.46,3.61,3.61,0,0,1-2.86-1.4,6.66,6.66,0,0,1-1.19-4.36,7,7,0,0,1,1.26-4.5,3.68,3.68,0,0,1,2.89-1.55,3.57,3.57,0,0,1,2.84,1.46,6.79,6.79,0,0,1,1.19,4.37,7,7,0,0,1-1.22,4.52m3.09-8.53a6.12,6.12,0,0,0-2.23-2.84,5.94,5.94,0,0,0-3.42-1,5.11,5.11,0,0,0-2.52.58,5.82,5.82,0,0,0-1.86,1.75v-2h-2.33V75.75h2.56V68.32a5.32,5.32,0,0,0,1.67,1.38,4.83,4.83,0,0,0,2.3.54,6.19,6.19,0,0,0,3.34-1,6.36,6.36,0,0,0,2.43-2.89,10.32,10.32,0,0,0,.83-4.21,10.48,10.48,0,0,0-.75-4" transform="translate(0 -0.3)" fill="#d73f3f"/></g><g id="g4321"><path id="path4323" d="M256.31,60.79a4.73,4.73,0,0,1,1.33-3.2,4.06,4.06,0,0,1,3-1.2,3.91,3.91,0,0,1,3.17,1.5,5.2,5.2,0,0,1,1,2.89Zm11.14,1.44a8.34,8.34,0,0,0-1.92-5.87,6.45,6.45,0,0,0-5-2.08,6.61,6.61,0,0,0-5.09,2.12,8.49,8.49,0,0,0-2,6,8.1,8.1,0,0,0,1.94,5.79,6.87,6.87,0,0,0,5.26,2.07,7,7,0,0,0,4.33-1.3,6.52,6.52,0,0,0,2.32-3.64L264.72,65a5,5,0,0,1-1.58,2.39,3.9,3.9,0,0,1-2.41.74,4.17,4.17,0,0,1-3.16-1.34,5.88,5.88,0,0,1-1.4-3.86h11.27c0-.3,0-.54,0-.68" transform="translate(0 -0.3)" fill="#d73f3f"/></g><g id="g4325"><path id="path4327" d="M270.59,69.9V54.62h2.31V56.8a5.42,5.42,0,0,1,4.81-2.52,6.21,6.21,0,0,1,2.52.49,3.87,3.87,0,0,1,1.71,1.3,5,5,0,0,1,.79,1.91,14.54,14.54,0,0,1,.14,2.52v9.4h-2.56V60.6a7,7,0,0,0-.3-2.37A2.47,2.47,0,0,0,279,57a3.34,3.34,0,0,0-1.78-.47,4.15,4.15,0,0,0-2.83,1c-.79.7-1.19,2-1.19,4V69.9Z" transform="translate(0 -0.3)" fill="#d73f3f"/></g><g id="g4329"><path id="path4331" d="M286.22,63.13l2.6-.23a5.9,5.9,0,0,0,.86,2.6,4.78,4.78,0,0,0,2.1,1.64,7.86,7.86,0,0,0,3.2.62,7.62,7.62,0,0,0,2.79-.47,3.9,3.9,0,0,0,1.8-1.31,3.05,3.05,0,0,0,.59-1.81,2.78,2.78,0,0,0-.57-1.73,4.28,4.28,0,0,0-1.88-1.25q-.84-.33-3.71-1a19.17,19.17,0,0,1-4-1.31,5.67,5.67,0,0,1-2.22-2,4.82,4.82,0,0,1-.74-2.63,5.45,5.45,0,0,1,.89-3,5.56,5.56,0,0,1,2.62-2.11,9.77,9.77,0,0,1,3.83-.72,10.37,10.37,0,0,1,4.09.75,5.88,5.88,0,0,1,2.73,2.22,6.44,6.44,0,0,1,1,3.32l-2.65.2a4.34,4.34,0,0,0-1.44-3,5.61,5.61,0,0,0-3.64-1,5.81,5.81,0,0,0-3.65.93,2.8,2.8,0,0,0-1.15,2.23,2.42,2.42,0,0,0,.81,1.87q.8.74,4.17,1.51a26.68,26.68,0,0,1,4.62,1.35A6.23,6.23,0,0,1,302,60.94a5.29,5.29,0,0,1,.87,3,5.78,5.78,0,0,1-1,3.17,6.26,6.26,0,0,1-2.74,2.32,9.42,9.42,0,0,1-4,.83,11.78,11.78,0,0,1-4.74-.84,6.6,6.6,0,0,1-3-2.51,7.13,7.13,0,0,1-1.15-3.79" transform="translate(0 -0.3)" fill="#d73f3f"/></g><g id="g4333"><path id="path4335" d="M311.89,67.58l.37,2.28a9.06,9.06,0,0,1-1.93.23,4.41,4.41,0,0,1-2.17-.44,2.52,2.52,0,0,1-1.08-1.18,9.25,9.25,0,0,1-.32-3.05V56.64h-1.87v-2h1.87V50.83l2.55-1.55v5.34h2.58v2h-2.58v8.93a4.48,4.48,0,0,0,.13,1.42,1.1,1.1,0,0,0,.44.51,1.77,1.77,0,0,0,.88.18,8.23,8.23,0,0,0,1.12-.1" transform="translate(0 -0.3)" fill="#d73f3f"/></g><g id="g4337"><path id="path4339" d="M314.36,69.9V54.62h2.3v2.32a6.51,6.51,0,0,1,1.63-2.15,2.84,2.84,0,0,1,1.65-.51,5,5,0,0,1,2.63.83l-.89,2.41A3.62,3.62,0,0,0,319.8,57a2.39,2.39,0,0,0-1.51.51,2.77,2.77,0,0,0-1,1.41,10.18,10.18,0,0,0-.43,3v8Z" transform="translate(0 -0.3)" fill="#d73f3f"/></g><g id="g4341"><path id="path4343" d="M326.06,60.79a4.73,4.73,0,0,1,1.33-3.2,4.06,4.06,0,0,1,3-1.2,3.91,3.91,0,0,1,3.17,1.5,5.21,5.21,0,0,1,1,2.89Zm11.14,1.44a8.31,8.31,0,0,0-1.92-5.87,6.43,6.43,0,0,0-5-2.08,6.6,6.6,0,0,0-5.09,2.12,8.49,8.49,0,0,0-2,6,8.1,8.1,0,0,0,1.94,5.79,6.87,6.87,0,0,0,5.26,2.07,7,7,0,0,0,4.33-1.3,6.52,6.52,0,0,0,2.32-3.64L334.47,65a5,5,0,0,1-1.57,2.39,3.9,3.9,0,0,1-2.41.74,4.16,4.16,0,0,1-3.16-1.34,5.87,5.87,0,0,1-1.41-3.86h11.27c0-.3,0-.54,0-.68" transform="translate(0 -0.3)" fill="#d73f3f"/></g><g id="g4345"><path id="path4347" d="M342.28,60.79a4.73,4.73,0,0,1,1.33-3.2,4.06,4.06,0,0,1,3-1.2,3.91,3.91,0,0,1,3.17,1.5,5.14,5.14,0,0,1,1,2.89Zm11.15,1.44a8.35,8.35,0,0,0-1.92-5.87,6.44,6.44,0,0,0-5-2.08,6.62,6.62,0,0,0-5.1,2.12,8.53,8.53,0,0,0-2,6,8.1,8.1,0,0,0,1.95,5.79,6.86,6.86,0,0,0,5.26,2.07,6.94,6.94,0,0,0,4.32-1.3,6.52,6.52,0,0,0,2.32-3.64L350.7,65a5,5,0,0,1-1.58,2.39,3.88,3.88,0,0,1-2.41.74,4.17,4.17,0,0,1-3.16-1.34,5.88,5.88,0,0,1-1.41-3.86h11.27c0-.3,0-.54,0-.68" transform="translate(0 -0.3)" fill="#d73f3f"/></g><g id="g4349"><path id="path4351" d="M362.17,67.58l.37,2.28a9.13,9.13,0,0,1-1.94.23,4.37,4.37,0,0,1-2.16-.44,2.49,2.49,0,0,1-1.09-1.18,9.32,9.32,0,0,1-.31-3.05V56.64h-1.88v-2H357V50.83l2.55-1.55v5.34h2.58v2H359.6v8.93a4.48,4.48,0,0,0,.13,1.42,1.08,1.08,0,0,0,.44.51,1.8,1.8,0,0,0,.88.18,8.33,8.33,0,0,0,1.13-.1" transform="translate(0 -0.3)" fill="#d73f3f"/></g><g id="g4353"><path id="path4355" d="M364.9,69.9V48.81h4.16L374,63.74c.45,1.39.79,2.43,1,3.12.24-.77.61-1.9,1.11-3.38l5-14.68h3.72V69.9h-2.67V52.25L376.09,69.9H373.6l-6-18v18Z" transform="translate(0 -0.3)" fill="#d73f3f"/></g><g id="g4357"><path id="path4359" d="M398.63,63.18a6.3,6.3,0,0,1-.42,2.59,4,4,0,0,1-1.69,1.79,5.27,5.27,0,0,1-2.63.66,3.34,3.34,0,0,1-2.27-.69,2.21,2.21,0,0,1-.77-1.72,2.29,2.29,0,0,1,.35-1.24,2.23,2.23,0,0,1,1-.84,9.32,9.32,0,0,1,2.23-.52,18.55,18.55,0,0,0,4.19-1Zm2.75,4.88a36.76,36.76,0,0,1-.17-4.57V60a15.1,15.1,0,0,0-.13-2.38,3.59,3.59,0,0,0-2.58-2.92,8.94,8.94,0,0,0-3.14-.46,10,10,0,0,0-3.43.54,4.9,4.9,0,0,0-2.27,1.54A6.43,6.43,0,0,0,388.54,59l2.51.34a4,4,0,0,1,1.27-2.27,4.51,4.51,0,0,1,2.68-.64,4.23,4.23,0,0,1,2.91.88,2.85,2.85,0,0,1,.73,2.23c0,.1,0,.33,0,.68a22.78,22.78,0,0,1-4.57.89,18.38,18.38,0,0,0-2.27.39,6.26,6.26,0,0,0-1.85.85,4.27,4.27,0,0,0-1.82,3.54A4.06,4.06,0,0,0,389.44,69a5.45,5.45,0,0,0,3.83,1.23,7.84,7.84,0,0,0,2.82-.5A9.38,9.38,0,0,0,398.84,68a5.69,5.69,0,0,0,.51,1.89H402a5.86,5.86,0,0,1-.64-1.84" transform="translate(0 -0.3)" fill="#d73f3f"/></g><g id="g4361"><path id="path4363" d="M414.48,66.66a3.69,3.69,0,0,1-2.92,1.46,3.61,3.61,0,0,1-2.86-1.4,6.66,6.66,0,0,1-1.19-4.36,7,7,0,0,1,1.26-4.5,3.68,3.68,0,0,1,2.89-1.55,3.57,3.57,0,0,1,2.84,1.46,6.79,6.79,0,0,1,1.19,4.37,7,7,0,0,1-1.22,4.52m3.09-8.53a6.12,6.12,0,0,0-2.23-2.84,5.94,5.94,0,0,0-3.42-1,5.11,5.11,0,0,0-2.52.58,5.81,5.81,0,0,0-1.86,1.75v-2H405.2V75.75h2.56V68.32a5.34,5.34,0,0,0,1.67,1.38,4.83,4.83,0,0,0,2.3.54,6.19,6.19,0,0,0,3.34-1,6.35,6.35,0,0,0,2.43-2.89,10.32,10.32,0,0,0,.83-4.21,10.48,10.48,0,0,0-.75-4" transform="translate(0 -0.3)" fill="#d73f3f"/></g><g id="g4365"><path id="path4367" d="M221.85,106.07V87.46H215V85h16.54v2.48h-6.91v18.61Z" transform="translate(0 -0.3)" fill="#d73f3f"/></g><g id="g4369"><path id="path4371" d="M236,97a4.73,4.73,0,0,1,1.33-3.2,4.05,4.05,0,0,1,3-1.2,3.91,3.91,0,0,1,3.17,1.5,5.21,5.21,0,0,1,1,2.89Zm11.14,1.44a8.34,8.34,0,0,0-1.92-5.87,6.45,6.45,0,0,0-5-2.08,6.6,6.6,0,0,0-5.09,2.12,8.48,8.48,0,0,0-2,6,8.1,8.1,0,0,0,1.94,5.79,6.87,6.87,0,0,0,5.26,2.07,7,7,0,0,0,4.33-1.3,6.51,6.51,0,0,0,2.32-3.64l-2.64-.33a5,5,0,0,1-1.58,2.39,3.89,3.89,0,0,1-2.41.74,4.16,4.16,0,0,1-3.16-1.34,5.88,5.88,0,0,1-1.41-3.86H247.1c0-.3,0-.54,0-.69" transform="translate(0 -0.3)" fill="#d73f3f"/></g><g id="g4373"><path id="path4375" d="M259.91,99.35a6.31,6.31,0,0,1-.41,2.59,4,4,0,0,1-1.69,1.79,5.27,5.27,0,0,1-2.63.66,3.34,3.34,0,0,1-2.28-.69,2.22,2.22,0,0,1-.78-1.72,2.3,2.3,0,0,1,.36-1.24,2.23,2.23,0,0,1,1-.84,9.32,9.32,0,0,1,2.23-.52,18.45,18.45,0,0,0,4.18-1Zm2.76,4.88a36.75,36.75,0,0,1-.17-4.57V96.21a15.11,15.11,0,0,0-.13-2.38,3.59,3.59,0,0,0-2.58-2.92,8.94,8.94,0,0,0-3.14-.46,10,10,0,0,0-3.44.54A4.88,4.88,0,0,0,251,92.52a6.32,6.32,0,0,0-1.13,2.63l2.51.34a4,4,0,0,1,1.27-2.27,4.5,4.5,0,0,1,2.67-.64,4.25,4.25,0,0,1,2.92.88,2.86,2.86,0,0,1,.73,2.23c0,.1,0,.33,0,.68a22.68,22.68,0,0,1-4.57.89,18.63,18.63,0,0,0-2.28.39,6.24,6.24,0,0,0-1.85.85,4.26,4.26,0,0,0-1.82,3.54,4.07,4.07,0,0,0,1.34,3.14,5.44,5.44,0,0,0,3.82,1.23,7.84,7.84,0,0,0,2.83-.5,9.39,9.39,0,0,0,2.74-1.73,5.5,5.5,0,0,0,.51,1.89h2.68a5.86,5.86,0,0,1-.64-1.84" transform="translate(0 -0.3)" fill="#d73f3f"/></g><g id="g4377"><path id="path4379" d="M266.49,106.07V90.79h2.29v2.14a5.51,5.51,0,0,1,1.89-1.81,5.32,5.32,0,0,1,2.69-.68,4.92,4.92,0,0,1,2.75.7,3.73,3.73,0,0,1,1.51,2,5.42,5.42,0,0,1,4.68-2.68,4.57,4.57,0,0,1,3.45,1.25A5.4,5.4,0,0,1,287,95.58v10.49h-2.55V96.44a7.51,7.51,0,0,0-.24-2.24,2.15,2.15,0,0,0-.91-1.1,2.8,2.8,0,0,0-1.53-.42,3.58,3.58,0,0,0-2.65,1.07A4.76,4.76,0,0,0,278,97.19v8.88h-2.56V96.14a4.41,4.41,0,0,0-.63-2.59,2.36,2.36,0,0,0-2-.86,3.68,3.68,0,0,0-2,.58,3.19,3.19,0,0,0-1.33,1.68,9.53,9.53,0,0,0-.42,3.2v7.93Z" transform="translate(0 -0.3)" fill="#d73f3f"/></g><g id="g4257"><path id="path4259" d="M215.2,33.74V12.65H218v8.66h10.85V12.65h2.76V33.74h-2.76V23.8H218v9.94Z" transform="translate(0 -0.3)" fill="#d73f3f"/></g><g id="g4381"><path id="path4383" d="M95.42,67a2.74,2.74,0,0,0,1.25,2.27,4.38,4.38,0,0,0,4.89,0A2.61,2.61,0,0,0,102.64,67V51.38a2.62,2.62,0,0,0-1.08-2.27,4.09,4.09,0,0,0-4.89,0,2.75,2.75,0,0,0-1.26,2.27ZM90.47,51.37a6.5,6.5,0,0,1,.75-3.17,6.78,6.78,0,0,1,2-2.27A9,9,0,0,1,96,44.58a10.76,10.76,0,0,1,6.2,0A9.06,9.06,0,0,1,105,45.93a6.79,6.79,0,0,1,2,2.27,6.46,6.46,0,0,1,.76,3.17V67a6.41,6.41,0,0,1-.76,3.18,6.84,6.84,0,0,1-2,2.25,8.92,8.92,0,0,1-2.77,1.35,10.78,10.78,0,0,1-6.2,0,8.9,8.9,0,0,1-2.77-1.35,6.83,6.83,0,0,1-2-2.25A6.45,6.45,0,0,1,90.47,67Z" transform="translate(0 -0.3)" fill="#d73f3f"/></g><g id="g4385"><path id="path4387" d="M81.55,44.1V56.82H73.66V44.1H69.35V74.3h4.31V61.57h7.89V74.3h4.64V44.1Z" transform="translate(0 -0.3)" fill="#d73f3f"/></g><g id="g4389"><path id="path4391" d="M128.1,44.1H111v4.44h6.32l-.07,25.76h4.55V48.54h6.31Z" transform="translate(0 -0.3)" fill="#d73f3f"/></g><g id="g4393"><path id="path4395" d="M97.34,98.51C74.08,98.51,55.22,81,55.22,59.3S74.08,20.09,97.34,20.09s42.12,17.55,42.12,39.21S120.6,98.51,97.34,98.51M159.84,71h34.83L173.85,47.42,153.11,23.83,132.38.3H28.19L48.93,23.83H14L34.76,47.42l.16.16H0L20.82,71.18,41.57,94.77,62.3,118.3H166.49L145.74,94.77l-.15-.23H180.5Z" transform="translate(0 -0.3)" fill="#d73f3f"/></g></g></g></svg>