<svg id="Layer_1" data-name="Layer 1" xmlns="http://www.w3.org/2000/svg" viewBox="0 0 500 120"><defs><style>.cls-1{fill:#d6403f;}.cls-2{fill:#fff;}.cls-3{fill:#504545;}</style></defs><title>HOT logo</title><g id="g8210-6-1-6"><path id="path8022-0-2-8-5" class="cls-1" d="M29.86,3.37,49.65,25.78H16.33L36.12,48.19l.2.2H3L22.8,70.81,42.58,93.22l19.79,22.41h99.14L141.72,93.22l-.2-.2h33.32L155.25,70.61h33.11l-20-22.41L148.59,25.78,128.8,3.37H29.86Z"/><path id="path8066-3-4-4-6" class="cls-2" d="M135.67,59.5c0,20.6-18,37.35-40,37.35s-40-16.76-40-37.35h0c0-20.6,18-37.35,40-37.35S135.67,38.9,135.67,59.5Z"/><g id="g8068-3-7-6-2"><path id="path8070-6-8-6-5" class="cls-1" d="M73.44,61.5V74.05H68.72V45.59h4.72V57.44h6.61V45.59h4.72V74.05H80.05V61.5H73.44"/><path id="path8072-1-6-7-9" class="cls-1" d="M93.66,64.86v2.47c0,.35.19.53.19.71s.19.35.38.71c.19.53.76.88,1.13,1.24a5.93,5.93,0,0,0,1.89.35,4,4,0,0,0,1.7-.35,4.28,4.28,0,0,0,1.32-1.24c.19-.18.19-.35.19-.71,0-.18.19-.53.19-.71V52.13c0-.35,0-.53-.19-.71,0-.18-.19-.53-.19-.71a2,2,0,0,0-1.32-1.06,3,3,0,0,0-1.7-.35,5.92,5.92,0,0,0-1.89.35,2.14,2.14,0,0,0-1.13,1.06,11.7,11.7,0,0,0-.57,1.41V64.86m11.9,0a19.55,19.55,0,0,1-.38,3.89,7.87,7.87,0,0,1-1.32,2.83c-1.32,1.77-3.59,2.65-6.61,2.65s-5.1-.88-6.61-2.65a7.87,7.87,0,0,1-1.32-2.83,21.1,21.1,0,0,1-.38-3.89V54.43a19.55,19.55,0,0,1,.38-3.89,7.87,7.87,0,0,1,1.32-2.83c1.32-1.77,3.59-2.65,6.61-2.65s5.1.88,6.61,2.65a7.87,7.87,0,0,1,1.32,2.83,21.1,21.1,0,0,1,.38,3.89V64.86"/><path id="path8074-8-3-2-1" class="cls-1" d="M119,73.88h-4.72V49.48H108.4V45.41h16.44v4.07H119v24.4"/></g></g><path class="cls-3" d="M234.48,62.15H222.73v8.1h13.75v4.37H217V46.25h19.4v4.37H222.73v7.12h11.76Z"/><path class="cls-3" d="M252.15,56.3l5.33-10h6.63l-8.42,14.05,8.9,14.31h-6.86l-5.48-10.24-5.48,10.24h-6.65l8.64-14.31-8.42-14.05h6.58Z"/><path class="cls-3" d="M275.45,64.33V74.62h-5.69V46.25h11.3c6.56,0,10.52,3.59,10.52,9.05s-4,9-10.52,9Zm0-4.4h5.61c3.18,0,4.85-1.88,4.85-4.59s-1.62-4.72-4.85-4.72h-5.61Z"/><path class="cls-3" d="M320.79,63c0,7-4.81,12-11.89,12s-11.78-5-11.78-12V57.92c0-7,4.74-12,11.76-12s11.91,5.07,11.91,12Zm-5.67-5.15c0-4.44-2.32-7.56-6.24-7.56s-6.08,3.1-6.08,7.56V63c0,4.5,2.25,7.62,6.11,7.62s6.21-3.12,6.21-7.62Z"/><path class="cls-3" d="M333.13,63.29V74.64h-5.69V46.28h10.72c6.5,0,10.33,3.07,10.33,8.38,0,2.92-1.56,5-4.53,6.3,3.36,1,4.72,3.33,4.72,6.76v2.1c0,1.6.37,3.55,1.41,4.39v.41h-5.87c-1-.84-1.23-3.12-1.23-4.85v-2c0-2.84-1.6-4.48-4.44-4.48Zm0-4.4H338c3.23,0,4.76-1.36,4.76-4s-1.58-4.24-4.66-4.24h-5Z"/><path class="cls-3" d="M374.68,50.63h-8v24H361v-24h-8V46.25h21.72Z"/><path class="cls-3" d="M413.14,50.63h-8v24h-5.69v-24h-8V46.25h21.72Z"/><path class="cls-3" d="M440.79,63c0,7-4.81,12-11.89,12s-11.78-5-11.78-12V57.92c0-7,4.74-12,11.76-12s11.91,5.07,11.91,12Zm-5.67-5.15c0-4.44-2.32-7.56-6.24-7.56s-6.08,3.1-6.08,7.56V63c0,4.5,2.25,7.62,6.11,7.62s6.21-3.12,6.21-7.62Z"/><path class="cls-3" d="M470.26,63c0,7-4.81,12-11.89,12S446.6,70,446.6,63V57.92c0-7,4.74-12,11.76-12s11.91,5.07,11.91,12Zm-5.67-5.15c0-4.44-2.32-7.56-6.24-7.56s-6.08,3.1-6.08,7.56V63c0,4.5,2.25,7.62,6.11,7.62s6.21-3.12,6.21-7.62Z"/><path class="cls-3" d="M482.61,70.24h12.62v4.37H476.91V46.25h5.69Z"/></svg>